HIERARCHY
ROOT Hips
{
	OFFSET 0.000000 0.000000 0.000000 
	CHANNELS 6 Xposition Yposition Zposition Zrotation Yrotation Xrotation
	JOINT LeftUpLeg
	{
		OFFSET 1.363060 -1.794630 0.839290 
		CHANNELS 3 Zrotation Yrotation Xrotation
		JOINT LeftLeg
		{
			OFFSET 2.448110 -6.726130 0.000000 
			CHANNELS 3 Zrotation Yrotation Xrotation
			JOINT LeftFoot
			{
				OFFSET 2.562200 -7.039590 0.000000 
				CHANNELS 3 Zrotation Yrotation Xrotation
				JOINT LeftToeBase
				{
					OFFSET 0.157640 -0.433110 2.322550 
					CHANNELS 3 Zrotation Yrotation Xrotation
					End Site
					{
						OFFSET 0.000000 0.000000 0.000000 
					}
				}
			}
		}
	}
	JOINT RightUpLeg
	{
		OFFSET -1.305520 -1.794630 0.839290 
		CHANNELS 3 Zrotation Yrotation Xrotation
		JOINT RightLeg
		{
			OFFSET -2.542530 -6.985550 0.000000 
			CHANNELS 3 Zrotation Yrotation Xrotation
			JOINT RightFoot
			{
				OFFSET -2.568260 -7.056230 0.000000 
				CHANNELS 3 Zrotation Yrotation Xrotation
				JOINT RightToeBase
				{
					OFFSET -0.164730 -0.452590 2.363150 
					CHANNELS 3 Zrotation Yrotation Xrotation
					End Site
					{
						OFFSET 0.000000 0.000000 0.000000 
					}
				}
			}
		}
	}
	JOINT Spine
	{
		OFFSET 0.028270 2.035590 -0.193380 
		CHANNELS 3 Zrotation Yrotation Xrotation
		JOINT Spine1
		{
			OFFSET 0.056720 2.048850 -0.042750 
			CHANNELS 3 Zrotation Yrotation Xrotation
			JOINT Neck1
			{
				OFFSET -0.054170 1.746240 0.172020 
				CHANNELS 3 Zrotation Yrotation Xrotation
				JOINT Head
				{
					OFFSET 0.104070 1.761360 -0.123970 
					CHANNELS 3 Zrotation Yrotation Xrotation
					End Site
					{
						OFFSET 0.000000 0.000000 0.000000 
					}
				}
			}
			JOINT LeftArm
			{
				OFFSET 3.362410 1.200890 -0.311210 
				CHANNELS 3 Zrotation Yrotation Xrotation
				JOINT LeftForeArm
				{
					OFFSET 4.983000 -0.000000 -0.000000 
					CHANNELS 3 Zrotation Yrotation Xrotation
					JOINT LeftHand
					{
						OFFSET 3.483560 -0.000000 -0.000000 
						CHANNELS 3 Zrotation Yrotation Xrotation
						JOINT LeftHandIndex1
						{
							OFFSET 0.715260 -0.000000 -0.000000 
							CHANNELS 3 Zrotation Yrotation Xrotation
							End Site
							{
								OFFSET 0.000000 0.000000 0.000000 
							}
						}
					}
				}
			}
			JOINT RightArm
			{
				OFFSET -3.136600 1.374050 -0.404650 
				CHANNELS 3 Zrotation Yrotation Xrotation
				JOINT RightForeArm
				{
					OFFSET -5.241900 -0.000000 -0.000000 
					CHANNELS 3 Zrotation Yrotation Xrotation
					JOINT RightHand
					{
						OFFSET -3.444170 -0.000000 -0.000000 
						CHANNELS 3 Zrotation Yrotation Xrotation
						JOINT RightHandIndex1
						{
							OFFSET -0.622530 -0.000000 -0.000000 
							CHANNELS 3 Zrotation Yrotation Xrotation
							End Site
							{
								OFFSET 0.000000 0.000000 0.000000 
							}
						}
					}
				}
			}
		}
	}
}
MOTION
Frames: 10
Frame Time: 0.041667
9.768592 17.129895 32.939171 90.488722 -89.943011 -68.488501 2.155254 -9.198175 -11.072802 -4.755817 0.806785 -0.120004 -5.608539 24.599554 29.660761 1.193600 -6.932500 -19.515600 -3.955060 39.033905 -3.887382 2.511156 -7.056788 13.714381 19.543921 -39.298908 -8.100357 -0.340200 3.747900 -10.368500 0.381102 0.718099 -5.381030 1.252413 0.224967 5.609401 6.681454 1.408885 10.876835 0.579000 1.301800 15.285100 5.516201 6.195078 -43.628547 3.887106 -4.644040 -3.248477 -9.430567 -0.988068 -8.533210 -7.125000 0.000000 0.000000 -9.230324 -9.849939 -52.454091 -4.481321 3.611767 -2.575943 8.530973 4.554143 16.658835 7.125000 0.000000 0.000000 
9.748639 17.127211 32.935321 29.260094 -89.002821 -7.320166 2.295570 -9.373803 -10.886273 -4.740686 0.739936 -0.079065 -5.752573 24.764128 29.675182 1.308800 -7.247000 -20.449100 -3.752495 38.868928 -3.827640 2.582818 -7.069112 13.617303 19.568208 -39.404193 -8.292000 -0.345700 3.778100 -10.453200 0.411989 0.447046 -5.387800 1.230212 -0.023917 5.596260 6.773255 1.418597 10.968600 0.711000 1.292900 15.371800 5.413386 6.181524 -43.603022 3.957130 -4.693364 -3.413218 -13.654073 -0.177945 -8.738115 -7.125000 0.000000 0.000000 -9.134368 -9.914301 -52.461310 -4.502682 3.626308 -2.575929 8.493634 4.516573 16.657254 7.125000 0.000000 0.000000 
9.729270 17.121261 32.931587 6.582838 -88.523097 15.266655 2.405067 -9.595561 -10.704051 -4.735858 0.685050 -0.051278 -5.831174 24.779432 29.628995 1.277700 -7.163500 -20.200800 -3.531844 38.892386 -3.609500 2.646601 -7.041095 13.538001 19.618267 -39.533848 -8.618156 -0.352100 3.812600 -10.550000 0.418990 0.243446 -5.392004 1.230937 -0.173098 5.612319 6.735305 1.355512 10.976874 0.675300 1.269600 15.345800 5.421390 6.133529 -43.311864 3.895908 -4.695273 -3.267082 -9.387042 -1.033394 -8.674875 -7.125000 0.000000 0.000000 -9.105757 -9.948232 -52.315330 -4.501458 3.635252 -2.580339 8.432362 4.502511 16.553469 7.125000 0.000000 0.000000 
9.711884 17.116943 32.923886 -6.125908 -88.306255 27.861294 2.524401 -9.739000 -10.597396 -4.717300 0.695630 -0.055214 -5.981892 25.102755 29.649667 1.424700 -7.548000 -21.349300 -3.270357 38.761802 -3.396822 2.693580 -6.973909 13.482827 19.627019 -39.555508 -8.696423 -0.357800 3.843000 -10.635500 0.414613 0.194706 -5.393423 1.204168 -0.210986 5.631032 6.784590 1.329247 11.040341 0.769300 1.253500 15.413600 5.389221 6.088420 -43.075369 3.902028 -4.721411 -3.286359 -10.021459 -0.906242 -8.792497 -7.125000 0.000000 0.000000 -8.988640 -10.031061 -52.199071 -4.514796 3.645263 -2.585993 8.363055 4.570865 16.333120 7.125000 0.000000 0.000000 
9.694032 17.112276 32.917235 -10.975601 -88.152252 32.611806 2.617476 -9.883447 -10.510731 -4.704491 0.709835 -0.064209 -6.082029 25.316405 29.626338 1.494500 -7.722400 -21.874200 -3.014423 38.741984 -3.123871 2.735752 -6.889417 13.438062 19.651381 -39.589392 -8.879466 -0.361600 3.863200 -10.692100 0.417309 0.143668 -5.393607 1.196908 -0.234491 5.655557 6.816673 1.319243 11.093017 0.834600 1.243200 15.457300 5.344474 6.058076 -42.872623 3.892350 -4.741993 -3.281414 -9.736479 -0.952239 -8.847725 -7.125000 0.000000 0.000000 -8.915797 -10.082360 -52.168812 -4.523578 3.649863 -2.586867 8.315469 4.581300 16.233754 7.125000 0.000000 0.000000 
9.676762 17.107492 32.909534 -13.841249 -88.008161 35.376051 2.706985 -10.020437 -10.425359 -4.691794 0.724118 -0.071941 -6.177551 25.520864 29.600981 1.554300 -7.868400 -22.315000 -2.761099 38.735197 -2.851754 2.776600 -6.809395 13.397645 19.674959 -39.624467 -9.061322 -0.364700 3.879400 -10.737700 0.421851 0.093085 -5.392487 1.197473 -0.257178 5.685442 6.845132 1.316448 11.140867 0.892500 1.236000 15.495500 5.291077 6.028537 -42.678315 3.877395 -4.759510 -3.272475 -9.360236 -1.006028 -8.872471 -7.125000 0.000000 0.000000 -8.851735 -10.128760 -52.174261 -4.530317 3.650369 -2.584878 8.267783 4.592502 16.151002 7.125000 0.000000 0.000000 
9.660077 17.102825 32.900666 -15.760574 -87.877217 37.194417 2.789942 -10.145212 -10.340524 -4.679661 0.736517 -0.076550 -6.265681 25.703225 29.568910 1.595700 -7.967600 -22.615600 -2.515497 38.747931 -2.587860 2.814379 -6.738735 13.364712 19.704044 -39.675009 -9.245328 -0.369200 3.902800 -10.803400 0.429675 0.041803 -5.390422 1.206652 -0.280116 5.717623 6.875831 1.321509 11.184045 0.946300 1.232100 15.527400 5.222097 6.004928 -42.489351 3.864134 -4.774338 -3.270224 -9.322785 -1.006819 -8.884497 -7.125000 0.000000 0.000000 -8.794827 -10.168689 -52.200940 -4.535547 3.648972 -2.580588 8.225953 4.605677 16.084542 7.125000 0.000000 0.000000 
9.643975 17.098274 32.890864 -17.107000 -87.765162 38.443742 2.862020 -10.252973 -10.257698 -4.668616 0.747456 -0.077865 -6.348382 25.867222 29.529525 1.622600 -8.031400 -22.809400 -2.285876 38.771066 -2.342571 2.847412 -6.679313 13.340257 19.737827 -39.738891 -9.414614 -0.375500 3.935400 -10.895100 0.438370 -0.003502 -5.387179 1.224222 -0.300819 5.751752 6.900918 1.321707 11.217241 0.985600 1.227200 15.543100 5.143422 5.978400 -42.332430 3.847615 -4.785701 -3.265908 -9.280072 -1.001140 -8.848499 -7.125000 0.000000 0.000000 -8.744015 -10.207666 -52.229518 -4.539482 3.647022 -2.575028 8.188376 4.623086 16.022850 7.125000 0.000000 0.000000 
9.628572 17.094073 32.880246 -18.080309 -87.676728 39.323949 2.919759 -10.339560 -10.177159 -4.658884 0.757903 -0.075771 -6.431719 26.025495 29.481046 1.640000 -8.072100 -22.933200 -2.082731 38.773823 -2.133661 2.872027 -6.633818 13.324012 19.779298 -39.820447 -9.522271 -0.386300 3.991200 -11.052000 0.446417 -0.038793 -5.383571 1.252955 -0.317415 5.783305 6.922272 1.316209 11.243215 1.016100 1.220100 15.546800 5.055049 5.948840 -42.172168 3.826963 -4.794188 -3.259553 -9.267862 -0.993843 -8.803626 -7.125000 0.000000 0.000000 -8.691460 -10.248438 -52.256962 -4.545775 3.648115 -2.570805 8.167871 4.638383 15.979209 7.125000 0.000000 0.000000 
9.613637 17.090223 32.868811 -19.013813 -87.613067 40.168427 2.965649 -10.403131 -10.098777 -4.649772 0.768042 -0.069867 -6.515814 26.177802 29.422347 1.646400 -8.087200 -22.979200 -1.901379 38.762391 -1.957092 2.889301 -6.600874 13.315730 19.827122 -39.916511 -9.574367 -0.401900 4.070000 -11.273700 0.452616 -0.061315 -5.379239 1.285548 -0.328426 5.812767 6.936554 1.297909 11.262518 1.029700 1.209900 15.539100 4.962507 5.913619 -42.056803 3.805116 -4.799696 -3.251634 -9.254661 -0.971059 -8.711965 -7.125000 0.000000 0.000000 -8.634171 -10.289746 -52.288485 -4.553655 3.651665 -2.567493 8.150185 4.648678 15.964576 7.125000 0.000000 0.000000 
